<svg width="76" height="14" viewBox="0 0 76 14" fill="none" xmlns="http://www.w3.org/2000/svg">
<g clip-path="url(#clip0_68_2035)">
<path fill-rule="evenodd" clip-rule="evenodd" d="M67.8009 11.4056L64.1071 13.6743C63.6628 13.9481 63.3984 13.7643 63.5184 13.259L64.5253 9.01212L61.2375 6.179C60.8418 5.83868 60.9337 5.52931 61.4625 5.48525L65.7768 5.13837L67.4437 1.10712C67.6406 0.628997 67.9593 0.627122 68.1581 1.10712L69.8268 5.13837L74.1412 5.48525C74.6587 5.52837 74.7656 5.83212 74.3634 6.179L71.0756 9.01025L72.0834 13.259C72.2025 13.7615 71.9456 13.9527 71.4946 13.6752L67.8009 11.4056ZM52.8009 11.4056L49.1071 13.6743C48.6628 13.9481 48.3984 13.7643 48.5184 13.259L49.5253 9.01212L46.2375 6.179C45.8418 5.83868 45.9337 5.52931 46.4625 5.48525L50.7768 5.13837L52.4437 1.10712C52.6406 0.628997 52.9593 0.627122 53.1581 1.10712L54.8268 5.13837L59.1412 5.48525C59.6587 5.52837 59.7656 5.83212 59.3634 6.179L56.0756 9.01025L57.0834 13.259C57.2025 13.7615 56.9456 13.9527 56.4946 13.6752L52.8009 11.4056ZM37.92 11.4056L34.2262 13.6743C33.7809 13.9481 33.5175 13.7643 33.6356 13.259L34.6443 9.01212L31.3556 6.179C30.96 5.83868 31.0518 5.52931 31.5806 5.48525L35.895 5.13837L37.5618 1.10712C37.7587 0.628997 38.0775 0.627122 38.2762 1.10712L39.9431 5.13837L44.2584 5.48525C44.7778 5.52837 44.8837 5.83212 44.4834 6.179L41.1946 9.01025L42.2025 13.259C42.3215 13.7615 42.0646 13.9527 41.6137 13.6752L37.92 11.4056ZM22.8759 11.4056L19.1821 13.6743C18.7368 13.9481 18.4725 13.7643 18.5915 13.259L19.6003 9.01212L16.3125 6.179C15.9168 5.83868 16.0087 5.52931 16.5356 5.48525L20.8509 5.13837L22.5196 1.10712C22.7165 0.628997 23.0353 0.627122 23.2321 1.10712L24.9009 5.13837L29.2153 5.48525C29.7346 5.52837 29.8406 5.83212 29.4403 6.179L26.1515 9.01025L27.1584 13.259C27.2775 13.7615 27.0215 13.9527 26.5696 13.6752L22.8759 11.4056ZM7.91996 11.4056L4.22621 13.6743C3.78089 13.9481 3.51746 13.7643 3.63558 13.259L4.64433 9.01212L1.35464 6.17806C0.959019 5.83775 1.05089 5.52837 1.57964 5.48431L5.89402 5.13743L7.56089 1.10618C7.75777 0.628059 8.07652 0.626184 8.27527 1.10618L9.94214 5.13743L14.2575 5.48431C14.7768 5.52743 14.8828 5.83118 14.4825 6.17806L11.1937 9.00931L12.2015 13.2581C12.3206 13.7606 12.0637 13.9518 11.6128 13.6743L7.91902 11.4037L7.91996 11.4056Z" fill="#131313"/>
</g>
<defs>
<clipPath id="clip0_68_2035">
<rect width="75" height="13.125" fill="white" transform="translate(0.304688 0.748047)"/>
</clipPath>
</defs>
</svg>
